# xmcd
#
# Track frame offsets: 
#        150
#        20625
#        34752
#        52730
#        76377
#        100860
#        118285
#        140402
#        157872
#        178990
#
# Disc length: 2638 seconds
#
# Revision: 5
# Processed by: cddbd v1.5.2PL0 Copyright (c) Steve Scherf et al.
# Submitted via: ExactAudioCopy v1.3
#
DISCID=7d0a4c0a
DTITLE=Phillips, Craig and Dean - Where Strength Begins
DYEAR=1997
DGENRE=Christian
TTITLE0=This Is How It Feels To Be Free
TTITLE1=Just One
TTITLE2=Where Strength Begins
TTITLE3=A Time Such As This
TTITLE4=New Mercy
TTITLE5=Made Up Mind
TTITLE6=Blessing In The Thorn
TTITLE7=Let The Blood Speak For Me
TTITLE8=Grace Will Meet You There
TTITLE9=Pray Me Home
EXTD=YEAR: 1997
EXTT0=
EXTT1=
EXTT2=
EXTT3=
EXTT4=
EXTT5=
EXTT6=
EXTT7=
EXTT8=
EXTT9=
PLAYORDER=
